<svg xmlns="http://www.w3.org/2000/svg" fill="none" viewBox="0 0 96 96" id="Seaborn-Icon--Streamline-Svg-Logos">
  <desc>
    Seaborn Icon Streamline Icon: https://streamlinehq.com
  </desc>
  <path fill="#ffffff" d="M48.3319 1.87891c-6.013 0 -11.9674 1.18442 -17.5227 3.48547 -5.5552 2.30106 -10.6032 5.67402 -14.855 9.92582 -4.2518 4.2518 -7.6247 9.2997 -9.92576 14.855 -2.30105 5.5552 -3.48547 11.5097 -3.48547 17.5226 0 6.013 1.18442 11.9675 3.48547 17.5227 2.30106 5.5552 5.67396 10.6032 9.92576 14.855 4.2518 4.2518 9.2998 7.6247 14.855 9.9258 5.5553 2.301 11.5097 3.4855 17.5227 3.4855 6.0129 0 11.9674 -1.1845 17.5227 -3.4855 5.5552 -2.3011 10.6032 -5.674 14.855 -9.9258 4.2517 -4.2518 7.6247 -9.2998 9.9257 -14.855 2.2269 -5.376 3.4079 -11.126 3.4818 -16.941l0.0037 -0.5817 -0.0037 -0.5817c-0.0739 -5.815 -1.2549 -11.5649 -3.4818 -16.9409 -2.301 -5.5553 -5.674 -10.6032 -9.9257 -14.855 -4.2518 -4.2518 -9.2998 -7.62476 -14.855 -9.92582 -5.5553 -2.30105 -11.5098 -3.48547 -17.5227 -3.48547Z" stroke-width="1"></path>
  <path fill="#afdad2" stroke="#ffffff" stroke-width="0.25" d="M37.8769 28.1655c0.4678 0 0.9164 -0.1858 1.2471 -0.5166 0.3308 -0.3307 0.5166 -0.7793 0.5166 -1.2471 0 -0.4677 -0.1858 -0.9163 -0.5166 -1.2471 -0.3307 -0.3307 -0.7793 -0.5165 -1.2471 -0.5165 -0.4677 0 -0.9163 0.1858 -1.2471 0.5165 -0.3307 0.3308 -0.5165 0.7794 -0.5165 1.2471 0 0.4678 0.1858 0.9164 0.5165 1.2471 0.3308 0.3308 0.7794 0.5166 1.2471 0.5166Z"></path>
  <path fill="#afdad2" stroke="#ffffff" stroke-width="0.25" d="M34.0797 30.8249c0.453 0 0.8875 -0.18 1.2078 -0.5003 0.3203 -0.3203 0.5003 -0.7548 0.5003 -1.2078 0 -0.453 -0.18 -0.8875 -0.5003 -1.2078 -0.3203 -0.3203 -0.7548 -0.5003 -1.2078 -0.5003 -0.453 0 -0.8875 0.18 -1.2078 0.5003 -0.3203 0.3203 -0.5003 0.7548 -0.5003 1.2078 0 0.453 0.18 0.8875 0.5003 1.2078 0.3203 0.3203 0.7548 0.5003 1.2078 0.5003Z"></path>
  <path fill="#afdad2" stroke="#ffffff" stroke-width="0.25" d="M30.4256 32.5163c0.4265 0 0.8356 -0.1695 1.1372 -0.4711s0.471 -0.7107 0.471 -1.1372 -0.1694 -0.8356 -0.471 -1.1372c-0.3016 -0.3015 -0.7107 -0.471 -1.1372 -0.471s-0.8356 0.1695 -1.1372 0.471c-0.3016 0.3016 -0.471 0.7107 -0.471 1.1372s0.1694 0.8356 0.471 1.1372 0.7107 0.4711 1.1372 0.4711Z"></path>
  <path fill="#afdad2" stroke="#ffffff" stroke-width="0.25" d="M41.0805 26.0639c0.4816 0 0.9435 -0.1913 1.2841 -0.5319 0.3405 -0.3405 0.5318 -0.8024 0.5318 -1.284 0 -0.4816 -0.1913 -0.9435 -0.5318 -1.284 -0.3406 -0.3405 -0.8025 -0.5319 -1.2841 -0.5319 -0.4815 0 -0.9435 0.1914 -1.284 0.5319s-0.5319 0.8024 -0.5319 1.284c0 0.4816 0.1914 0.9435 0.5319 1.284 0.3405 0.3406 0.8025 0.5319 1.284 0.5319Z"></path>
  <path fill="#afdad2" stroke="#ffffff" stroke-width="0.25" d="M27.6845 28.703c0.3236 0 0.634 -0.1285 0.8628 -0.3574 0.2288 -0.2288 0.3574 -0.5391 0.3574 -0.8627s-0.1286 -0.634 -0.3574 -0.8628 -0.5392 -0.3574 -0.8628 -0.3574 -0.634 0.1286 -0.8628 0.3574 -0.3573 0.5392 -0.3573 0.8628 0.1285 0.6339 0.3573 0.8627c0.2288 0.2289 0.5392 0.3574 0.8628 0.3574Z"></path>
  <path fill="#afdad2" stroke="#ffffff" stroke-width="0.25" d="M24.6723 35.3876c0.3844 0 0.7532 -0.1528 1.025 -0.4246 0.2719 -0.2719 0.4246 -0.6406 0.4246 -1.0251 0 -0.3844 -0.1527 -0.7532 -0.4246 -1.025 -0.2718 -0.2719 -0.6406 -0.4246 -1.025 -0.4246 -0.3845 0 -0.7532 0.1527 -1.0251 0.4246 -0.2718 0.2718 -0.4245 0.6406 -0.4245 1.025 0 0.3845 0.1527 0.7532 0.4245 1.0251 0.2719 0.2718 0.6406 0.4246 1.0251 0.4246Z"></path>
  <path fill="#afdad2" stroke="#ffffff" stroke-width="0.25" d="M26.5153 23.9086c0.4633 0 0.9076 -0.1841 1.2352 -0.5116 0.3276 -0.3276 0.5116 -0.7719 0.5116 -1.2352 0 -0.4632 -0.184 -0.9076 -0.5116 -1.2351 -0.3276 -0.3276 -0.7719 -0.5117 -1.2352 -0.5117 -0.4632 0 -0.9076 0.1841 -1.2351 0.5117 -0.3276 0.3275 -0.5116 0.7719 -0.5116 1.2351 0 0.4633 0.184 0.9076 0.5116 1.2352 0.3275 0.3275 0.7719 0.5116 1.2351 0.5116Z"></path>
  <path fill="#afdad2" stroke="#ffffff" stroke-width="0.25" d="M31.2298 27.1779c0.3583 0 0.7019 -0.1423 0.9553 -0.3957 0.2533 -0.2533 0.3956 -0.5969 0.3956 -0.9552 0 -0.3583 -0.1423 -0.7019 -0.3956 -0.9553 -0.2534 -0.2533 -0.597 -0.3956 -0.9553 -0.3956 -0.3582 0 -0.7019 0.1423 -0.9552 0.3956 -0.2534 0.2534 -0.3957 0.597 -0.3957 0.9553 0 0.3583 0.1423 0.7019 0.3957 0.9552 0.2533 0.2534 0.597 0.3957 0.9552 0.3957Z"></path>
  <path fill="#afdad2" stroke="#ffffff" stroke-width="0.25" d="M54.5255 23.1453c0.419 0 0.8208 -0.1665 1.1171 -0.4627 0.2962 -0.2962 0.4626 -0.6981 0.4626 -1.117 0 -0.419 -0.1664 -0.8208 -0.4626 -1.1171 -0.2963 -0.2962 -0.6981 -0.4627 -1.1171 -0.4627 -0.4189 0 -0.8208 0.1665 -1.117 0.4627 -0.2963 0.2963 -0.4627 0.6981 -0.4627 1.1171 0 0.4189 0.1664 0.8208 0.4627 1.117 0.2962 0.2962 0.6981 0.4627 1.117 0.4627Z"></path>
  <path fill="#afdad2" stroke="#ffffff" stroke-width="0.25" d="M21.3931 31.5201c0.254 0 0.4976 -0.1009 0.6771 -0.2804 0.1796 -0.1796 0.2805 -0.4232 0.2805 -0.6771 0 -0.254 -0.1009 -0.4976 -0.2805 -0.6772 -0.1795 -0.1795 -0.4231 -0.2804 -0.6771 -0.2804 -0.2539 0 -0.4975 0.1009 -0.6771 0.2804 -0.1796 0.1796 -0.2805 0.4232 -0.2805 0.6772 0 0.2539 0.1009 0.4975 0.2805 0.6771 0.1796 0.1795 0.4232 0.2804 0.6771 0.2804Z"></path>
  <path fill="#afdad2" stroke="#ffffff" stroke-width="0.25" d="M24.5747 30.6182c0.3014 0 0.5904 -0.1197 0.8035 -0.3328 0.213 -0.2131 0.3328 -0.5021 0.3328 -0.8035 0 -0.3013 -0.1198 -0.5903 -0.3328 -0.8034 -0.2131 -0.2131 -0.5021 -0.3328 -0.8035 -0.3328 -0.3013 0 -0.5903 0.1197 -0.8034 0.3328 -0.2131 0.2131 -0.3328 0.5021 -0.3328 0.8034 0 0.3014 0.1197 0.5904 0.3328 0.8035 0.2131 0.2131 0.5021 0.3328 0.8034 0.3328Z"></path>
  <path fill="#afdad2" stroke="#ffffff" stroke-width="0.25" d="M18.773 27.0176c0.3994 0 0.7826 -0.1587 1.0651 -0.4412s0.4412 -0.6657 0.4412 -1.0652c0 -0.3995 -0.1587 -0.7826 -0.4412 -1.0651s-0.6657 -0.4412 -1.0651 -0.4412c-0.3995 0 -0.7827 0.1587 -1.0652 0.4412s-0.4412 0.6656 -0.4412 1.0651c0 0.3995 0.1587 0.7827 0.4412 1.0652s0.6657 0.4412 1.0652 0.4412Z"></path>
  <path fill="#afdad2" stroke="#ffffff" stroke-width="0.25" d="M24.6993 26.3537c0.2083 0 0.408 -0.0827 0.5553 -0.23 0.1472 -0.1472 0.23 -0.347 0.23 -0.5552 0 -0.2083 -0.0828 -0.408 -0.23 -0.5553 -0.1473 -0.1473 -0.347 -0.23 -0.5553 -0.23 -0.2082 0 -0.408 0.0827 -0.5552 0.23 -0.1473 0.1473 -0.23 0.347 -0.23 0.5553 0 0.2082 0.0827 0.408 0.23 0.5552 0.1472 0.1473 0.347 0.23 0.5552 0.23Z"></path>
  <path fill="#afdad2" stroke="#ffffff" stroke-width="0.25" d="M35.2145 25.1287c0.3888 0 0.7617 -0.1545 1.0366 -0.4294 0.2749 -0.2749 0.4294 -0.6478 0.4294 -1.0366 0 -0.3887 -0.1545 -0.7616 -0.4294 -1.0366 -0.2749 -0.2749 -0.6478 -0.4293 -1.0366 -0.4293 -0.3888 0 -0.7617 0.1544 -1.0366 0.4293 -0.2749 0.275 -0.4294 0.6479 -0.4294 1.0366 0 0.3888 0.1545 0.7617 0.4294 1.0366 0.2749 0.2749 0.6478 0.4294 1.0366 0.4294Z"></path>
  <path fill="#afdad2" stroke="#ffffff" stroke-width="0.25" d="M46.3506 25.9775c0.3355 0 0.6573 -0.1333 0.8946 -0.3705 0.2372 -0.2373 0.3705 -0.5591 0.3705 -0.8946 0 -0.3355 -0.1333 -0.6573 -0.3705 -0.8946 -0.2373 -0.2372 -0.5591 -0.3705 -0.8946 -0.3705 -0.3355 0 -0.6574 0.1333 -0.8946 0.3705 -0.2372 0.2373 -0.3706 0.5591 -0.3706 0.8946 0 0.3355 0.1334 0.6573 0.3706 0.8946 0.2372 0.2372 0.5591 0.3705 0.8946 0.3705Z"></path>
  <path fill="#afdad2" stroke="#ffffff" stroke-width="0.25" d="M48.6674 18.0843c0.2196 0 0.4302 -0.0873 0.5855 -0.2426 0.1552 -0.1552 0.2425 -0.3659 0.2425 -0.5855 0 -0.2196 -0.0873 -0.4302 -0.2425 -0.5855 -0.1553 -0.1552 -0.3659 -0.2425 -0.5855 -0.2425 -0.2196 0 -0.4302 0.0873 -0.5855 0.2425 -0.1553 0.1553 -0.2425 0.3659 -0.2425 0.5855 0 0.2196 0.0872 0.4303 0.2425 0.5855 0.1553 0.1553 0.3659 0.2426 0.5855 0.2426Z"></path>
  <path fill="#afdad2" stroke="#ffffff" stroke-width="0.25" d="M51.3592 22.8512c0.3669 0 0.7189 -0.1458 0.9783 -0.4053 0.2595 -0.2594 0.4053 -0.6114 0.4053 -0.9783 0 -0.367 -0.1458 -0.7189 -0.4053 -0.9784 -0.2594 -0.2594 -0.6114 -0.4052 -0.9783 -0.4052 -0.367 0 -0.7189 0.1458 -0.9784 0.4052 -0.2594 0.2595 -0.4052 0.6114 -0.4052 0.9784 0 0.3669 0.1458 0.7189 0.4052 0.9783 0.2595 0.2595 0.6114 0.4053 0.9784 0.4053Z"></path>
  <path fill="#afdad2" stroke="#ffffff" stroke-width="0.25" d="M37.5364 22.0436c0.3771 0 0.7387 -0.1498 1.0053 -0.4164 0.2666 -0.2666 0.4164 -0.6283 0.4164 -1.0053 0 -0.3771 -0.1498 -0.7387 -0.4164 -1.0053 -0.2666 -0.2666 -0.6282 -0.4164 -1.0053 -0.4164 -0.377 0 -0.7386 0.1498 -1.0053 0.4164 -0.2666 0.2666 -0.4164 0.6282 -0.4164 1.0053 0 0.377 0.1498 0.7387 0.4164 1.0053 0.2667 0.2666 0.6283 0.4164 1.0053 0.4164Z"></path>
  <path fill="#afdad2" stroke="#ffffff" stroke-width="0.25" d="M19.7269 35.7077c0.306 0 0.5994 -0.1215 0.8158 -0.3379 0.2163 -0.2163 0.3379 -0.5098 0.3379 -0.8157 0 -0.306 -0.1216 -0.5995 -0.3379 -0.8158 -0.2164 -0.2164 -0.5098 -0.3379 -0.8158 -0.3379 -0.3059 0 -0.5994 0.1215 -0.8158 0.3379 -0.2163 0.2163 -0.3379 0.5098 -0.3379 0.8158 0 0.3059 0.1216 0.5994 0.3379 0.8157 0.2164 0.2164 0.5099 0.3379 0.8158 0.3379Z"></path>
  <path fill="#afdad2" stroke="#ffffff" stroke-width="0.25" d="M57.7248 23.4471c0.4659 0 0.9129 -0.1851 1.2424 -0.5146 0.3295 -0.3295 0.5146 -0.7764 0.5146 -1.2424 0 -0.4659 -0.1851 -0.9129 -0.5146 -1.2424 -0.3295 -0.3295 -0.7765 -0.5146 -1.2424 -0.5146 -0.466 0 -0.9129 0.1851 -1.2424 0.5146 -0.3295 0.3295 -0.5146 0.7765 -0.5146 1.2424 0 0.466 0.1851 0.9129 0.5146 1.2424 0.3295 0.3295 0.7764 0.5146 1.2424 0.5146Z"></path>
  <path fill="#afdad2" stroke="#ffffff" stroke-width="0.25" d="M40.7714 22.2572c0.4277 0 0.838 -0.1699 1.1404 -0.4723 0.3024 -0.3025 0.4724 -0.7127 0.4724 -1.1404 0 -0.4277 -0.17 -0.838 -0.4724 -1.1404 -0.3024 -0.3024 -0.7127 -0.4724 -1.1404 -0.4724 -0.4277 0 -0.8379 0.17 -1.1403 0.4724 -0.3025 0.3024 -0.4724 0.7127 -0.4724 1.1404 0 0.4277 0.1699 0.8379 0.4724 1.1404 0.3024 0.3024 0.7126 0.4723 1.1403 0.4723Z"></path>
  <path fill="#afdad2" stroke="#ffffff" stroke-width="0.25" d="M22.0333 23.5573c0.3965 0 0.7769 -0.1575 1.0573 -0.4379 0.2803 -0.2804 0.4379 -0.6608 0.4379 -1.0573 0 -0.3965 -0.1576 -0.7769 -0.4379 -1.0573 -0.2804 -0.2804 -0.6608 -0.4379 -1.0573 -0.4379 -0.3965 0 -0.7769 0.1575 -1.0573 0.4379 -0.2804 0.2804 -0.4379 0.6608 -0.4379 1.0573 0 0.3965 0.1575 0.7769 0.4379 1.0573 0.2804 0.2804 0.6608 0.4379 1.0573 0.4379Z"></path>
  <path fill="#afdad2" stroke="#ffffff" stroke-width="0.25" d="M30.3546 19.697c0.4584 0 0.8982 -0.1822 1.2223 -0.5063 0.3242 -0.3242 0.5063 -0.7639 0.5063 -1.2223 0 -0.4585 -0.1821 -0.8982 -0.5063 -1.2224 -0.3241 -0.3241 -0.7639 -0.5063 -1.2223 -0.5063 -0.4584 0 -0.8982 0.1822 -1.2223 0.5063 -0.3242 0.3242 -0.5063 0.7639 -0.5063 1.2224 0 0.4584 0.1821 0.8981 0.5063 1.2223 0.3241 0.3241 0.7639 0.5063 1.2223 0.5063Z"></path>
  <path fill="#afdad2" stroke="#ffffff" stroke-width="0.25" d="M62.7875 22.0241c0.2831 0 0.5547 -0.1125 0.755 -0.3127 0.2002 -0.2002 0.3127 -0.4718 0.3127 -0.755s-0.1125 -0.5548 -0.3127 -0.755c-0.2003 -0.2002 -0.4719 -0.3127 -0.755 -0.3127 -0.2832 0 -0.5548 0.1125 -0.755 0.3127 -0.2003 0.2002 -0.3128 0.4718 -0.3128 0.755s0.1125 0.5548 0.3128 0.755c0.2002 0.2002 0.4718 0.3127 0.755 0.3127Z"></path>
  <path fill="#afdad2" stroke="#ffffff" stroke-width="0.25" d="M25.5946 17.6643c0.3602 0 0.7057 -0.1431 0.9605 -0.3978 0.2547 -0.2547 0.3978 -0.6002 0.3978 -0.9605 0 -0.3602 -0.1431 -0.7057 -0.3978 -0.9604 -0.2548 -0.2547 -0.6003 -0.3978 -0.9605 -0.3978 -0.3602 0 -0.7057 0.1431 -0.9604 0.3978 -0.2548 0.2547 -0.3979 0.6002 -0.3979 0.9604 0 0.3603 0.1431 0.7058 0.3979 0.9605 0.2547 0.2547 0.6002 0.3978 0.9604 0.3978Z"></path>
  <path fill="#afdad2" stroke="#ffffff" stroke-width="0.25" d="M31.72 23.7481c0.3066 0 0.6006 -0.1218 0.8174 -0.3386s0.3386 -0.5109 0.3386 -0.8174c0 -0.3066 -0.1218 -0.6007 -0.3386 -0.8175s-0.5108 -0.3386 -0.8174 -0.3386 -0.6007 0.1218 -0.8174 0.3386c-0.2168 0.2168 -0.3386 0.5109 -0.3386 0.8175 0 0.3065 0.1218 0.6006 0.3386 0.8174 0.2167 0.2168 0.5108 0.3386 0.8174 0.3386Z"></path>
  <path fill="#afdad2" stroke="#ffffff" stroke-width="0.25" d="M34.4884 21.2386c0.3115 0 0.6103 -0.1237 0.8305 -0.344 0.2203 -0.2202 0.344 -0.519 0.344 -0.8305 0 -0.3114 -0.1237 -0.6102 -0.344 -0.8305 -0.2202 -0.2202 -0.519 -0.344 -0.8305 -0.344 -0.3114 0 -0.6102 0.1238 -0.8304 0.344 -0.2203 0.2203 -0.344 0.5191 -0.344 0.8305 0 0.3115 0.1237 0.6103 0.344 0.8305 0.2202 0.2203 0.519 0.344 0.8304 0.344Z"></path>
  <path fill="#afdad2" stroke="#ffffff" stroke-width="0.25" d="M16.3499 24.2228c0.3136 0 0.6144 -0.1246 0.8361 -0.3464 0.2217 -0.2217 0.3463 -0.5225 0.3463 -0.8361s-0.1246 -0.6143 -0.3463 -0.8361c-0.2217 -0.2217 -0.5225 -0.3463 -0.8361 -0.3463s-0.6144 0.1246 -0.8361 0.3463c-0.2217 0.2218 -0.3463 0.5225 -0.3463 0.8361s0.1246 0.6144 0.3463 0.8361c0.2217 0.2218 0.5225 0.3464 0.8361 0.3464Z"></path>
  <path fill="#afdad2" stroke="#ffffff" stroke-width="0.25" d="M19.6058 19.6246c0.2877 0 0.5636 -0.1143 0.767 -0.3177 0.2034 -0.2034 0.3177 -0.4794 0.3177 -0.767 0 -0.2877 -0.1143 -0.5637 -0.3177 -0.7671 -0.2034 -0.2034 -0.4793 -0.3177 -0.767 -0.3177s-0.5637 0.1143 -0.7671 0.3177c-0.2034 0.2034 -0.3177 0.4794 -0.3177 0.7671 0 0.2876 0.1143 0.5636 0.3177 0.767 0.2034 0.2034 0.4794 0.3177 0.7671 0.3177Z"></path>
  <path fill="#afdad2" stroke="#ffffff" stroke-width="0.25" d="M44.6323 22.9917c0.2412 0 0.4724 -0.0958 0.6429 -0.2663 0.1705 -0.1705 0.2663 -0.4017 0.2663 -0.6429 0 -0.2411 -0.0958 -0.4724 -0.2663 -0.6429 -0.1705 -0.1705 -0.4017 -0.2663 -0.6429 -0.2663 -0.2411 0 -0.4724 0.0958 -0.6429 0.2663 -0.1705 0.1705 -0.2663 0.4018 -0.2663 0.6429 0 0.2412 0.0958 0.4724 0.2663 0.6429 0.1705 0.1705 0.4018 0.2663 0.6429 0.2663Z"></path>
  <path fill="#afdad2" stroke="#ffffff" stroke-width="0.25" d="M15.5154 30.208c0.3985 0 0.7807 -0.1583 1.0625 -0.4401 0.2818 -0.2818 0.4401 -0.6641 0.4401 -1.0626 0 -0.3985 -0.1583 -0.7807 -0.4401 -1.0625 -0.2818 -0.2818 -0.664 -0.4402 -1.0625 -0.4402 -0.3985 0 -0.7808 0.1584 -1.0626 0.4402 -0.2818 0.2818 -0.4401 0.664 -0.4401 1.0625 0 0.3985 0.1583 0.7808 0.4401 1.0626 0.2818 0.2818 0.6641 0.4401 1.0626 0.4401Z"></path>
  <path fill="#afdad2" stroke="#ffffff" stroke-width="0.25" d="M12.1594 27.6743c0.2996 0 0.587 -0.119 0.7988 -0.3308 0.2119 -0.2119 0.3309 -0.4992 0.3309 -0.7988s-0.119 -0.587 -0.3309 -0.7988c-0.2118 -0.2118 -0.4992 -0.3309 -0.7988 -0.3309 -0.2995 0 -0.5869 0.1191 -0.7987 0.3309 -0.2119 0.2118 -0.3309 0.4992 -0.3309 0.7988s0.119 0.5869 0.3309 0.7988c0.2118 0.2118 0.4992 0.3308 0.7987 0.3308Z"></path>
  <path fill="#afdad2" stroke="#ffffff" stroke-width="0.25" d="M47.7339 22.7281c0.3014 0 0.5904 -0.1197 0.8035 -0.3328 0.2131 -0.2131 0.3328 -0.5021 0.3328 -0.8034 0 -0.3014 -0.1197 -0.5904 -0.3328 -0.8035 -0.2131 -0.2131 -0.5021 -0.3328 -0.8035 -0.3328 -0.3013 0 -0.5903 0.1197 -0.8034 0.3328 -0.2131 0.2131 -0.3328 0.5021 -0.3328 0.8035 0 0.3013 0.1197 0.5903 0.3328 0.8034 0.2131 0.2131 0.5021 0.3328 0.8034 0.3328Z"></path>
  <path fill="#afdad2" stroke="#ffffff" stroke-width="0.25" d="M21.8992 28.6286c0.4646 0 0.9102 -0.1846 1.2387 -0.5131 0.3285 -0.3285 0.5131 -0.7741 0.5131 -1.2387 0 -0.4646 -0.1846 -0.9102 -0.5131 -1.2387 -0.3285 -0.3285 -0.7741 -0.5131 -1.2387 -0.5131 -0.4645 0 -0.9101 0.1846 -1.2387 0.5131 -0.3285 0.3285 -0.513 0.7741 -0.513 1.2387 0 0.4646 0.1845 0.9102 0.513 1.2387 0.3286 0.3285 0.7742 0.5131 1.2387 0.5131Z"></path>
  <path fill="#afdad2" stroke="#ffffff" stroke-width="0.25" d="M60.49 20.6641c0.4658 0 0.9125 -0.185 1.2418 -0.5143 0.3293 -0.3294 0.5144 -0.7761 0.5144 -1.2418s-0.1851 -0.9125 -0.5144 -1.2418c-0.3293 -0.3293 -0.776 -0.5143 -1.2418 -0.5143 -0.4657 0 -0.9124 0.185 -1.2418 0.5143 -0.3293 0.3293 -0.5143 0.7761 -0.5143 1.2418s0.185 0.9124 0.5143 1.2418c0.3294 0.3293 0.7761 0.5143 1.2418 0.5143Z"></path>
  <path fill="#afdad2" stroke="#ffffff" stroke-width="0.25" d="M16.4475 37.2114c0.2703 0 0.5296 -0.1074 0.7207 -0.2986 0.1911 -0.1911 0.2985 -0.4504 0.2985 -0.7207s-0.1074 -0.5296 -0.2985 -0.7207c-0.1911 -0.1912 -0.4504 -0.2985 -0.7207 -0.2985s-0.5296 0.1073 -0.7207 0.2985c-0.1912 0.1911 -0.2986 0.4504 -0.2986 0.7207s0.1074 0.5296 0.2986 0.7207c0.1911 0.1912 0.4504 0.2986 0.7207 0.2986Z"></path>
  <path fill="#afdad2" stroke="#ffffff" stroke-width="0.25" d="M41.9087 17.3291c0.3717 0 0.7281 -0.1476 0.9909 -0.4104 0.2628 -0.2628 0.4105 -0.6193 0.4105 -0.991 0 -0.3716 -0.1477 -0.7281 -0.4105 -0.9909 -0.2628 -0.2628 -0.6192 -0.4104 -0.9909 -0.4104 -0.3716 0 -0.7281 0.1476 -0.9909 0.4104 -0.2628 0.2628 -0.4105 0.6193 -0.4105 0.9909 0 0.3717 0.1477 0.7282 0.4105 0.991 0.2628 0.2628 0.6193 0.4104 0.9909 0.4104Z"></path>
  <path fill="#afdad2" stroke="#ffffff" stroke-width="0.25" d="M71.0258 19.2596c0.3796 0 0.7438 -0.1509 1.0122 -0.4193 0.2685 -0.2685 0.4193 -0.6326 0.4193 -1.0123 0 -0.3796 -0.1508 -0.7438 -0.4193 -1.0122 -0.2684 -0.2685 -0.6326 -0.4193 -1.0122 -0.4193 -0.3797 0 -0.7438 0.1508 -1.0123 0.4193 -0.2684 0.2684 -0.4193 0.6326 -0.4193 1.0122 0 0.3797 0.1509 0.7438 0.4193 1.0123 0.2685 0.2684 0.6326 0.4193 1.0123 0.4193Z"></path>
  <path fill="#afdad2" stroke="#ffffff" stroke-width="0.25" d="M51.9812 18.5297c0.3023 0 0.5922 -0.1201 0.806 -0.3338 0.2137 -0.2138 0.3338 -0.5037 0.3338 -0.806s-0.1201 -0.5923 -0.3338 -0.806c-0.2138 -0.2138 -0.5037 -0.3339 -0.806 -0.3339s-0.5923 0.1201 -0.806 0.3339c-0.2138 0.2137 -0.3339 0.5037 -0.3339 0.806s0.1201 0.5922 0.3339 0.806c0.2137 0.2137 0.5037 0.3338 0.806 0.3338Z"></path>
  <path fill="#afdad2" stroke="#ffffff" stroke-width="0.25" d="M27.1297 33.5674c0.3941 0 0.7721 -0.1566 1.0508 -0.4352 0.2787 -0.2787 0.4353 -0.6568 0.4353 -1.0509 0 -0.3941 -0.1566 -0.7721 -0.4353 -1.0508 -0.2787 -0.2787 -0.6567 -0.4353 -1.0508 -0.4353 -0.3942 0 -0.7722 0.1566 -1.0509 0.4353 -0.2787 0.2787 -0.4352 0.6567 -0.4352 1.0508s0.1565 0.7722 0.4352 1.0509c0.2787 0.2786 0.6567 0.4352 1.0509 0.4352Z"></path>
  <path fill="#afdad2" stroke="#ffffff" stroke-width="0.25" d="M55.8471 19.0204c0.3774 0 0.7393 -0.1499 1.0061 -0.4167 0.2668 -0.2668 0.4167 -0.6287 0.4167 -1.0061 0 -0.3773 -0.1499 -0.7392 -0.4167 -1.0061 -0.2668 -0.2668 -0.6287 -0.4167 -1.0061 -0.4167 -0.3773 0 -0.7392 0.1499 -1.0061 0.4167 -0.2668 0.2669 -0.4167 0.6288 -0.4167 1.0061 0 0.3774 0.1499 0.7393 0.4167 1.0061 0.2669 0.2668 0.6288 0.4167 1.0061 0.4167Z"></path>
  <path fill="#afdad2" stroke="#ffffff" stroke-width="0.25" d="M65.9223 20.4076c0.3127 0 0.6126 -0.1243 0.8337 -0.3454 0.2212 -0.2211 0.3454 -0.5211 0.3454 -0.8338s-0.1242 -0.6126 -0.3454 -0.8337c-0.2211 -0.2211 -0.521 -0.3454 -0.8337 -0.3454s-0.6127 0.1243 -0.8338 0.3454c-0.2211 0.2211 -0.3453 0.521 -0.3453 0.8337s0.1242 0.6127 0.3453 0.8338c0.2211 0.2211 0.5211 0.3454 0.8338 0.3454Z"></path>
  <path fill="#afdad2" stroke="#ffffff" stroke-width="0.25" d="M77.0535 22.963c0.2819 0 0.5522 -0.112 0.7515 -0.3113 0.1993 -0.1993 0.3113 -0.4696 0.3113 -0.7515 0 -0.2819 -0.112 -0.5522 -0.3113 -0.7515 -0.1993 -0.1993 -0.4696 -0.3113 -0.7515 -0.3113 -0.2818 0 -0.5522 0.112 -0.7515 0.3113 -0.1993 0.1993 -0.3113 0.4696 -0.3113 0.7515 0 0.2819 0.112 0.5522 0.3113 0.7515 0.1993 0.1993 0.4697 0.3113 0.7515 0.3113Z"></path>
  <path fill="#afdad2" stroke="#ffffff" stroke-width="0.25" d="M37.2808 15.1538c0.2429 0 0.4759 -0.0965 0.6477 -0.2683 0.1718 -0.1718 0.2683 -0.4048 0.2683 -0.6477 0 -0.2429 -0.0965 -0.476 -0.2683 -0.6477 -0.1718 -0.1718 -0.4048 -0.2683 -0.6477 -0.2683 -0.243 0 -0.476 0.0965 -0.6478 0.2683 -0.1717 0.1717 -0.2683 0.4048 -0.2683 0.6477 0 0.2429 0.0966 0.4759 0.2683 0.6477 0.1718 0.1718 0.4048 0.2683 0.6478 0.2683Z"></path>
  <path fill="#afdad2" stroke="#ffffff" stroke-width="0.25" d="M45.6091 12.6386c0.3556 0 0.6968 -0.1413 0.9482 -0.3928 0.2515 -0.2515 0.3928 -0.5926 0.3928 -0.9482 0 -0.3557 -0.1413 -0.6968 -0.3928 -0.9483 -0.2514 -0.2515 -0.5926 -0.39276 -0.9482 -0.39276s-0.6968 0.14126 -0.9483 0.39276c-0.2514 0.2515 -0.3927 0.5926 -0.3927 0.9483 0 0.3556 0.1413 0.6967 0.3927 0.9482 0.2515 0.2515 0.5927 0.3928 0.9483 0.3928Z"></path>
  <path fill="#afdad2" stroke="#ffffff" stroke-width="0.25" d="M76.8171 19.8275c0.4686 0 0.918 -0.1861 1.2493 -0.5174 0.3313 -0.3314 0.5175 -0.7808 0.5175 -1.2494 0 -0.4685 -0.1862 -0.918 -0.5175 -1.2493 -0.3313 -0.3313 -0.7807 -0.5175 -1.2493 -0.5175 -0.4686 0 -0.918 0.1862 -1.2493 0.5175 -0.3313 0.3313 -0.5175 0.7808 -0.5175 1.2493 0 0.4686 0.1862 0.918 0.5175 1.2494 0.3313 0.3313 0.7807 0.5174 1.2493 0.5174Z"></path>
  <path fill="#afdad2" stroke="#ffffff" stroke-width="0.25" d="M43.5866 20.5498c0.4428 0 0.8676 -0.176 1.1807 -0.4891 0.3131 -0.3131 0.489 -0.7378 0.489 -1.1806 0 -0.4428 -0.1759 -0.8675 -0.489 -1.1806 -0.3131 -0.3131 -0.7379 -0.4891 -1.1807 -0.4891 -0.4428 0 -0.8675 0.176 -1.1806 0.4891 -0.3131 0.3131 -0.489 0.7378 -0.489 1.1806 0 0.4428 0.1759 0.8675 0.489 1.1806 0.3131 0.3131 0.7378 0.4891 1.1806 0.4891Z"></path>
  <path fill="#afdad2" stroke="#ffffff" stroke-width="0.25" d="M49.7633 14.2921c0.4417 0 0.8654 -0.1755 1.1777 -0.4878 0.3124 -0.3123 0.4879 -0.736 0.4879 -1.1778 0 -0.4417 -0.1755 -0.8654 -0.4879 -1.1777 -0.3123 -0.3124 -0.736 -0.4879 -1.1777 -0.4879 -0.4418 0 -0.8655 0.1755 -1.1778 0.4879 -0.3123 0.3123 -0.4878 0.736 -0.4878 1.1777 0 0.4418 0.1755 0.8655 0.4878 1.1778 0.3123 0.3123 0.736 0.4878 1.1778 0.4878Z"></path>
  <path fill="#afdad2" stroke="#ffffff" stroke-width="0.25" d="M64.2025 16.3206c0.4576 0 0.8965 -0.1819 1.2201 -0.5054 0.3236 -0.3236 0.5054 -0.7625 0.5054 -1.2201s-0.1818 -0.8965 -0.5054 -1.2201 -0.7625 -0.5054 -1.2201 -0.5054 -0.8965 0.1818 -1.2201 0.5054c-0.3235 0.3236 -0.5053 0.7625 -0.5053 1.2201s0.1818 0.8965 0.5053 1.2201c0.3236 0.3235 0.7625 0.5054 1.2201 0.5054Z"></path>
  <path fill="#afdad2" stroke="#ffffff" stroke-width="0.25" d="M82.0657 27.1686c0.4333 0 0.8488 -0.1721 1.1552 -0.4785 0.3063 -0.3063 0.4785 -0.7219 0.4785 -1.1551 0 -0.4333 -0.1722 -0.8488 -0.4785 -1.1552 -0.3064 -0.3063 -0.7219 -0.4784 -1.1552 -0.4784 -0.4332 0 -0.8487 0.1721 -1.1551 0.4784 -0.3063 0.3064 -0.4785 0.7219 -0.4785 1.1552 0 0.4332 0.1722 0.8488 0.4785 1.1551 0.3064 0.3064 0.7219 0.4785 1.1551 0.4785Z"></path>
  <path fill="#afdad2" stroke="#ffffff" stroke-width="0.25" d="M45.2325 7.39078c0.2474 0 0.4846 -0.09827 0.6595 -0.27318 0.1749 -0.17491 0.2732 -0.41216 0.2732 -0.65951 0 -0.24736 -0.0983 -0.48461 -0.2732 -0.65952 -0.1749 -0.1749 -0.4121 -0.27318 -0.6595 -0.27318 -0.2474 0 -0.4846 0.09828 -0.6595 0.27318 -0.1749 0.17491 -0.2732 0.41216 -0.2732 0.65952 0 0.24735 0.0983 0.4846 0.2732 0.65951 0.1749 0.17491 0.4121 0.27318 0.6595 0.27318Z"></path>
  <path fill="#afdad2" stroke="#ffffff" stroke-width="0.25" d="M60.1273 17.2916c0.4153 0 0.8137 -0.165 1.1074 -0.4587 0.2937 -0.2937 0.4588 -0.6921 0.4588 -1.1075 0 -0.4154 -0.1651 -0.8138 -0.4588 -1.1075 -0.2937 -0.2937 -0.6921 -0.4587 -1.1074 -0.4587 -0.4154 0 -0.8138 0.165 -1.1075 0.4587 -0.2937 0.2937 -0.4588 0.6921 -0.4588 1.1075 0 0.4154 0.1651 0.8138 0.4588 1.1075 0.2937 0.2937 0.6921 0.4587 1.1075 0.4587Z"></path>
  <path fill="#afdad2" stroke="#ffffff" stroke-width="0.25" d="M58.0318 14.2839c0.3353 0 0.6569 -0.1333 0.894 -0.3703 0.2371 -0.2371 0.3703 -0.5587 0.3703 -0.894 0 -0.3353 -0.1332 -0.6569 -0.3703 -0.8939 -0.2371 -0.2371 -0.5587 -0.3703 -0.894 -0.3703 -0.3353 0 -0.6569 0.1332 -0.8939 0.3703 -0.2371 0.237 -0.3703 0.5586 -0.3703 0.8939 0 0.3353 0.1332 0.6569 0.3703 0.894 0.237 0.237 0.5586 0.3703 0.8939 0.3703Z"></path>
  <path fill="#afdad2" stroke="#ffffff" stroke-width="0.25" d="M51.6783 11.531c0.4302 0 0.8429 -0.171 1.1471 -0.4752s0.4751 -0.7168 0.4751 -1.14701c0 -0.4302 -0.1709 -0.84285 -0.4751 -1.14705 -0.3042 -0.3042 -0.7169 -0.47512 -1.1471 -0.47512s-0.8428 0.17092 -1.147 0.47512 -0.4751 0.71685 -0.4751 1.14705c0 0.43021 0.1709 0.84281 0.4751 1.14701 0.3042 0.3042 0.7168 0.4752 1.147 0.4752Z"></path>
  <path fill="#afdad2" stroke="#ffffff" stroke-width="0.25" d="M33.7842 18.1466c0.4823 0 0.9448 -0.1916 1.2858 -0.5326 0.341 -0.341 0.5326 -0.8036 0.5326 -1.2858 0 -0.4823 -0.1916 -0.9448 -0.5326 -1.2858 -0.341 -0.341 -0.8035 -0.5326 -1.2858 -0.5326 -0.4822 0 -0.9448 0.1916 -1.2858 0.5326 -0.341 0.341 -0.5326 0.8035 -0.5326 1.2858 0 0.4822 0.1916 0.9448 0.5326 1.2858 0.341 0.341 0.8036 0.5326 1.2858 0.5326Z"></path>
  <path fill="#afdad2" stroke="#ffffff" stroke-width="0.25" d="M22.5659 15.4687c0.2626 0 0.5145 -0.1043 0.7002 -0.29 0.1857 -0.1857 0.29 -0.4376 0.29 -0.7002 0 -0.2626 -0.1043 -0.5145 -0.29 -0.7002 -0.1857 -0.1857 -0.4376 -0.29 -0.7002 -0.29 -0.2626 0 -0.5145 0.1043 -0.7002 0.29 -0.1857 0.1857 -0.29 0.4376 -0.29 0.7002 0 0.2626 0.1043 0.5145 0.29 0.7002 0.1857 0.1857 0.4376 0.29 0.7002 0.29Z"></path>
  <path fill="#afdad2" stroke="#ffffff" stroke-width="0.25" d="M27.274 14.8043c0.3404 0 0.667 -0.1352 0.9077 -0.376 0.2408 -0.2407 0.376 -0.5673 0.376 -0.9077 0 -0.3405 -0.1352 -0.667 -0.376 -0.9078 -0.2407 -0.2407 -0.5673 -0.376 -0.9077 -0.376 -0.3405 0 -0.667 0.1353 -0.9078 0.376 -0.2407 0.2408 -0.376 0.5673 -0.376 0.9078 0 0.3404 0.1353 0.667 0.376 0.9077 0.2408 0.2408 0.5673 0.376 0.9078 0.376Z"></path>
  <path fill="#afdad2" stroke="#ffffff" stroke-width="0.25" d="M70.4065 22.5821c0.4197 0 0.8222 -0.1667 1.1189 -0.4634 0.2968 -0.2967 0.4635 -0.6993 0.4635 -1.1189s-0.1667 -0.8221 -0.4635 -1.1189c-0.2967 -0.2967 -0.6992 -0.4634 -1.1189 -0.4634 -0.4196 0 -0.8221 0.1667 -1.1188 0.4634 -0.2968 0.2968 -0.4635 0.6993 -0.4635 1.1189s0.1667 0.8222 0.4635 1.1189c0.2967 0.2967 0.6992 0.4634 1.1188 0.4634Z"></path>
  <path fill="#afdad2" stroke="#ffffff" stroke-width="0.25" d="M53.0461 14.2412c0.2331 0 0.4566 -0.0926 0.6213 -0.2573 0.1648 -0.1648 0.2574 -0.3883 0.2574 -0.6214 0 -0.233 -0.0926 -0.4565 -0.2574 -0.6213 -0.1647 -0.1647 -0.3882 -0.2573 -0.6213 -0.2573 -0.233 0 -0.4565 0.0926 -0.6213 0.2573 -0.1647 0.1648 -0.2573 0.3883 -0.2573 0.6213 0 0.2331 0.0926 0.4566 0.2573 0.6214 0.1648 0.1647 0.3883 0.2573 0.6213 0.2573Z"></path>
  <path fill="#afdad2" stroke="#ffffff" stroke-width="0.25" d="M34.3877 14.4175c0.442 0 0.8659 -0.1756 1.1784 -0.4881 0.3126 -0.3125 0.4882 -0.7364 0.4882 -1.1784 0 -0.442 -0.1756 -0.8659 -0.4882 -1.1784 -0.3125 -0.3125 -0.7364 -0.4881 -1.1784 -0.4881 -0.4419 0 -0.8659 0.1756 -1.1784 0.4881 -0.3125 0.3125 -0.4881 0.7364 -0.4881 1.1784 0 0.442 0.1756 0.8659 0.4881 1.1784 0.3125 0.3125 0.7365 0.4881 1.1784 0.4881Z"></path>
  <path fill="#afdad2" stroke="#ffffff" stroke-width="0.25" d="M9.9329 34.8477c0.3843 0 0.7529 -0.1526 1.0246 -0.4244 0.2717 -0.2717 0.4244 -0.6403 0.4244 -1.0246s-0.1527 -0.7529 -0.4244 -1.0246c-0.2717 -0.2717 -0.6403 -0.4244 -1.0246 -0.4244 -0.38428 0 -0.75288 0.1527 -1.02461 0.4244s-0.4244 0.6403 -0.4244 1.0246 0.15267 0.7529 0.4244 1.0246c0.27173 0.2718 0.64033 0.4244 1.02461 0.4244Z"></path>
  <path fill="#afdad2" stroke="#ffffff" stroke-width="0.25" d="M13.7928 35.3473c0.4464 0 0.8747 -0.1774 1.1903 -0.4931 0.3157 -0.3156 0.4931 -0.7439 0.4931 -1.1903 0 -0.4465 -0.1774 -0.8747 -0.4931 -1.1904 -0.3156 -0.3157 -0.7439 -0.493 -1.1903 -0.493 -0.4465 0 -0.8747 0.1773 -1.1904 0.493 -0.3156 0.3157 -0.493 0.7439 -0.493 1.1904 0 0.4464 0.1774 0.8747 0.493 1.1903 0.3157 0.3157 0.7439 0.4931 1.1904 0.4931Z"></path>
  <path fill="#afdad2" stroke="#ffffff" stroke-width="0.25" d="M27.397 20.5059c0.4297 0 0.8418 -0.1707 1.1456 -0.4745 0.3039 -0.3038 0.4746 -0.7159 0.4746 -1.1456 0 -0.4297 -0.1707 -0.8418 -0.4746 -1.1456 -0.3038 -0.3039 -0.7159 -0.4746 -1.1456 -0.4746 -0.4297 0 -0.8418 0.1707 -1.1456 0.4746 -0.3038 0.3038 -0.4745 0.7159 -0.4745 1.1456 0 0.4297 0.1707 0.8418 0.4745 1.1456 0.3038 0.3038 0.7159 0.4745 1.1456 0.4745Z"></path>
  <path fill="#afdad2" stroke="#ffffff" stroke-width="0.25" d="M10.4085 31.2409c0.3331 0 0.6525 -0.1323 0.888 -0.3678 0.2354 -0.2355 0.3678 -0.5549 0.3678 -0.8879 0 -0.333 -0.1324 -0.6524 -0.3678 -0.8879 -0.2355 -0.2355 -0.5549 -0.3678 -0.888 -0.3678 -0.333 0 -0.6524 0.1323 -0.88788 0.3678 -0.23548 0.2355 -0.36779 0.5549 -0.36779 0.8879 0 0.333 0.13231 0.6524 0.36779 0.8879 0.23548 0.2355 0.55488 0.3678 0.88788 0.3678Z"></path>
  <path fill="#afdad2" stroke="#ffffff" stroke-width="0.25" d="M61.0426 13.012c0.3644 0 0.714 -0.1448 0.9717 -0.4025 0.2576 -0.2577 0.4024 -0.6073 0.4024 -0.9717 0 -0.3644 -0.1448 -0.714 -0.4024 -0.9717 -0.2577 -0.2576 -0.6073 -0.4024 -0.9717 -0.4024 -0.3644 0 -0.714 0.1448 -0.9717 0.4024 -0.2577 0.2577 -0.4024 0.6073 -0.4024 0.9717 0 0.3644 0.1447 0.714 0.4024 0.9717 0.2577 0.2577 0.6073 0.4025 0.9717 0.4025Z"></path>
  <path fill="#afdad2" stroke="#ffffff" stroke-width="0.25" d="M22.788 18.7821c0.3316 0 0.6497 -0.1318 0.8842 -0.3663 0.2345 -0.2345 0.3662 -0.5525 0.3662 -0.8841 0 -0.3317 -0.1317 -0.6497 -0.3662 -0.8842 -0.2345 -0.2345 -0.5526 -0.3663 -0.8842 -0.3663s-0.6497 0.1318 -0.8842 0.3663c-0.2345 0.2345 -0.3662 0.5525 -0.3662 0.8842 0 0.3316 0.1317 0.6496 0.3662 0.8841 0.2345 0.2345 0.5526 0.3663 0.8842 0.3663Z"></path>
  <path fill="#afdad2" stroke="#ffffff" stroke-width="0.25" d="M16.726 33.844c0.4651 0 0.9112 -0.1848 1.2401 -0.5136 0.3289 -0.3289 0.5137 -0.7751 0.5137 -1.2402 0 -0.4651 -0.1848 -0.9112 -0.5137 -1.2401 -0.3289 -0.3289 -0.775 -0.5137 -1.2401 -0.5137 -0.4651 0 -0.9113 0.1848 -1.2402 0.5137 -0.3288 0.3289 -0.5136 0.775 -0.5136 1.2401 0 0.4651 0.1848 0.9113 0.5136 1.2402 0.3289 0.3288 0.7751 0.5136 1.2402 0.5136Z"></path>
  <path fill="#afdad2" stroke="#ffffff" stroke-width="0.25" d="M73.7363 21.9092c0.4557 0 0.8928 -0.181 1.2151 -0.5033 0.3222 -0.3222 0.5032 -0.7593 0.5032 -1.215 0 -0.4557 -0.181 -0.8927 -0.5032 -1.215 -0.3223 -0.3222 -0.7594 -0.5032 -1.2151 -0.5032 -0.4556 0 -0.8927 0.181 -1.215 0.5032 -0.3222 0.3223 -0.5032 0.7593 -0.5032 1.215 0 0.4557 0.181 0.8928 0.5032 1.215 0.3223 0.3223 0.7594 0.5033 1.215 0.5033Z"></path>
  <path fill="#afdad2" stroke="#ffffff" stroke-width="0.25" d="M79.9313 21.7044c0.3134 0 0.614 -0.1245 0.8357 -0.3461 0.2216 -0.2216 0.3461 -0.5223 0.3461 -0.8357s-0.1245 -0.614 -0.3461 -0.8356c-0.2217 -0.2217 -0.5223 -0.3462 -0.8357 -0.3462s-0.614 0.1245 -0.8356 0.3462c-0.2217 0.2216 -0.3462 0.5222 -0.3462 0.8356s0.1245 0.6141 0.3462 0.8357c0.2216 0.2216 0.5222 0.3461 0.8356 0.3461Z"></path>
  <path fill="#afdad2" stroke="#ffffff" stroke-width="0.25" d="M39.0741 18.7796c0.3491 0 0.684 -0.1387 0.9308 -0.3855 0.2469 -0.2469 0.3856 -0.5817 0.3856 -0.9308 0 -0.3491 -0.1387 -0.6839 -0.3856 -0.9308 -0.2468 -0.2468 -0.5817 -0.3855 -0.9308 -0.3855 -0.3491 0 -0.6839 0.1387 -0.9307 0.3855 -0.2469 0.2469 -0.3856 0.5817 -0.3856 0.9308 0 0.3491 0.1387 0.6839 0.3856 0.9308 0.2468 0.2468 0.5816 0.3855 0.9307 0.3855Z"></path>
  <path fill="#afdad2" stroke="#ffffff" stroke-width="0.25" d="M67.9706 17.3002c0.2924 0 0.5729 -0.1162 0.7796 -0.3229 0.2068 -0.2068 0.3229 -0.4872 0.3229 -0.7796 0 -0.2924 -0.1161 -0.5728 -0.3229 -0.7796 -0.2067 -0.2067 -0.4872 -0.3229 -0.7796 -0.3229 -0.2923 0 -0.5728 0.1162 -0.7795 0.3229 -0.2068 0.2068 -0.3229 0.4872 -0.3229 0.7796 0 0.2924 0.1161 0.5728 0.3229 0.7796 0.2067 0.2067 0.4872 0.3229 0.7795 0.3229Z"></path>
  <path fill="#afdad2" stroke="#ffffff" stroke-width="0.25" d="M67.4963 14.5371c0.4769 0 0.9343 -0.1894 1.2715 -0.5266 0.3372 -0.3372 0.5267 -0.7946 0.5267 -1.2715 0 -0.4768 -0.1895 -0.9342 -0.5267 -1.2714 -0.3372 -0.3372 -0.7946 -0.5267 -1.2715 -0.5267 -0.4768 0 -0.9342 0.1895 -1.2714 0.5267 -0.3372 0.3372 -0.5267 0.7946 -0.5267 1.2714 0 0.4769 0.1895 0.9343 0.5267 1.2715 0.3372 0.3372 0.7946 0.5266 1.2714 0.5266Z"></path>
  <path fill="#afdad2" stroke="#ffffff" stroke-width="0.25" d="M45.3273 17.6013c0.4263 0 0.8352 -0.1693 1.1367 -0.4708 0.3014 -0.3015 0.4708 -0.7104 0.4708 -1.1367s-0.1694 -0.8353 -0.4708 -1.1367c-0.3015 -0.3015 -0.7104 -0.4709 -1.1367 -0.4709s-0.8353 0.1694 -1.1367 0.4709c-0.3015 0.3014 -0.4709 0.7104 -0.4709 1.1367s0.1694 0.8352 0.4709 1.1367c0.3014 0.3015 0.7104 0.4708 1.1367 0.4708Z"></path>
  <path fill="#afdad2" stroke="#ffffff" stroke-width="0.25" d="M79.2995 25.3725c0.3658 0 0.7166 -0.1453 0.9752 -0.4039 0.2586 -0.2587 0.404 -0.6095 0.404 -0.9752 0 -0.3658 -0.1454 -0.7166 -0.404 -0.9752 -0.2586 -0.2586 -0.6094 -0.4039 -0.9752 -0.4039 -0.3657 0 -0.7165 0.1453 -0.9752 0.4039 -0.2586 0.2586 -0.4039 0.6094 -0.4039 0.9752 0 0.3657 0.1453 0.7165 0.4039 0.9752 0.2587 0.2586 0.6095 0.4039 0.9752 0.4039Z"></path>
  <path fill="#afdad2" stroke="#ffffff" stroke-width="0.25" d="M13.4621 37.8252c0.2145 0 0.4203 -0.0853 0.572 -0.2369 0.1516 -0.1517 0.2369 -0.3575 0.2369 -0.572 0 -0.2145 -0.0853 -0.4202 -0.2369 -0.5719 -0.1517 -0.1517 -0.3575 -0.2369 -0.572 -0.2369 -0.2145 0 -0.4202 0.0852 -0.5719 0.2369 -0.1517 0.1517 -0.2369 0.3574 -0.2369 0.5719 0 0.2145 0.0852 0.4203 0.2369 0.572 0.1517 0.1516 0.3574 0.2369 0.5719 0.2369Z"></path>
  <path fill="#afdad2" stroke="#ffffff" stroke-width="0.25" d="M30.4618 15.3962c0.4005 0 0.7846 -0.1591 1.0678 -0.4423 0.2832 -0.2832 0.4423 -0.6673 0.4423 -1.0678 0 -0.4005 -0.1591 -0.7846 -0.4423 -1.0678 -0.2832 -0.2832 -0.6673 -0.4423 -1.0678 -0.4423 -0.4005 0 -0.7846 0.1591 -1.0678 0.4423 -0.2832 0.2832 -0.4423 0.6673 -0.4423 1.0678 0 0.4005 0.1591 0.7846 0.4423 1.0678 0.2832 0.2832 0.6673 0.4423 1.0678 0.4423Z"></path>
  <path fill="#afdad2" stroke="#ffffff" stroke-width="0.25" d="M41.4844 12.9337c0.2861 0 0.5605 -0.1137 0.7627 -0.316 0.2023 -0.2022 0.316 -0.4766 0.316 -0.7627 0 -0.286 -0.1137 -0.5604 -0.316 -0.7627 -0.2022 -0.2023 -0.4766 -0.3159 -0.7627 -0.3159 -0.286 0 -0.5604 0.1136 -0.7627 0.3159 -0.2023 0.2023 -0.3159 0.4767 -0.3159 0.7627 0 0.2861 0.1136 0.5605 0.3159 0.7627 0.2023 0.2023 0.4767 0.316 0.7627 0.316Z"></path>
  <path fill="#afdad2" stroke="#ffffff" stroke-width="0.25" d="M72.7898 16.2554c0.36 0 0.7052 -0.143 0.9597 -0.3975 0.2545 -0.2545 0.3975 -0.5997 0.3975 -0.9597 0 -0.3599 -0.143 -0.7052 -0.3975 -0.9597 -0.2545 -0.2545 -0.5997 -0.3975 -0.9597 -0.3975 -0.3599 0 -0.7052 0.143 -0.9597 0.3975 -0.2545 0.2545 -0.3975 0.5998 -0.3975 0.9597 0 0.36 0.143 0.7052 0.3975 0.9597 0.2545 0.2545 0.5998 0.3975 0.9597 0.3975Z"></path>
  <path fill="#afdad2" stroke="#ffffff" stroke-width="0.25" d="M38.47 10.7553c0.4475 0 0.8769 -0.1778 1.1934 -0.4943 0.3165 -0.31648 0.4943 -0.7458 0.4943 -1.19339 0 -0.44759 -0.1778 -0.87691 -0.4943 -1.1934 -0.3165 -0.3165 -0.7459 -0.49433 -1.1934 -0.49433 -0.4476 0 -0.877 0.17783 -1.1934 0.49433 -0.3165 0.31649 -0.4944 0.74581 -0.4944 1.1934 0 0.44759 0.1779 0.87691 0.4944 1.19339 0.3164 0.3165 0.7458 0.4943 1.1934 0.4943Z"></path>
  <path fill="#afdad2" stroke="#ffffff" stroke-width="0.25" d="M64.9483 12.3669c0.4139 0 0.8109 -0.1645 1.1036 -0.4571 0.2926 -0.2927 0.4571 -0.6897 0.4571 -1.1036 0 -0.4138 -0.1645 -0.81083 -0.4571 -1.10349 -0.2927 -0.29267 -0.6897 -0.4571 -1.1036 -0.4571 -0.4138 0 -0.8108 0.16443 -1.1035 0.4571 -0.2927 0.29266 -0.4571 0.68969 -0.4571 1.10349 0 0.4139 0.1644 0.8109 0.4571 1.1036 0.2927 0.2926 0.6897 0.4571 1.1035 0.4571Z"></path>
  <path fill="#afdad2" stroke="#ffffff" stroke-width="0.25" d="M30.8635 10.7036c0.3316 0 0.6496 -0.1318 0.884 -0.3662 0.2345 -0.2345 0.3662 -0.55249 0.3662 -0.88405 0 -0.33156 -0.1317 -0.64959 -0.3662 -0.88404 -0.2344 -0.23445 -0.5524 -0.36619 -0.884 -0.36619s-0.6496 0.13174 -0.884 0.36619c-0.2345 0.23445 -0.3662 0.55248 -0.3662 0.88404 0 0.33156 0.1317 0.64955 0.3662 0.88405 0.2344 0.2344 0.5524 0.3662 0.884 0.3662Z"></path>
  <path fill="#afdad2" stroke="#ffffff" stroke-width="0.25" d="M33.8656 9.7376c0.3658 0 0.7167 -0.14533 0.9753 -0.40399 0.2587 -0.25865 0.404 -0.60952 0.404 -0.97531 0 -0.36579 -0.1453 -0.71665 -0.404 -0.97531 -0.2586 -0.25866 -0.6095 -0.40399 -0.9753 -0.40399 -0.3658 0 -0.7166 0.14533 -0.9753 0.40399 -0.2586 0.25866 -0.404 0.60952 -0.404 0.97531 0 0.36579 0.1454 0.71666 0.404 0.97531 0.2587 0.25866 0.6095 0.40399 0.9753 0.40399Z"></path>
  <path fill="#afdad2" stroke="#ffffff" stroke-width="0.25" d="M55.125 8.00834c0.4292 0 0.8408 -0.1705 1.1443 -0.47395 0.3034 -0.30346 0.4739 -0.71509 0.4739 -1.14423 0 -0.42915 -0.1705 -0.84078 -0.4739 -1.14423 -0.3035 -0.30345 -0.7151 -0.47396 -1.1443 -0.47396 -0.4291 0 -0.8408 0.17051 -1.1442 0.47396 -0.3035 0.30345 -0.474 0.71508 -0.474 1.14423 0 0.42914 0.1705 0.84077 0.474 1.14423 0.3034 0.30345 0.7151 0.47395 1.1442 0.47395Z"></path>
  <path fill="#afdad2" stroke="#ffffff" stroke-width="0.25" d="M48.6227 8.35191c0.334 0 0.6544 -0.1327 0.8906 -0.36888 0.2362 -0.23619 0.3689 -0.55656 0.3689 -0.89057 0 -0.33401 -0.1327 -0.65439 -0.3689 -0.89057 -0.2362 -0.23618 -0.5566 -0.36888 -0.8906 -0.36888 -0.334 0 -0.6544 0.1327 -0.8905 0.36888 -0.2362 0.23618 -0.3689 0.55656 -0.3689 0.89057 0 0.33401 0.1327 0.65438 0.3689 0.89057 0.2361 0.23618 0.5565 0.36888 0.8905 0.36888Z"></path>
  <path fill="#afdad2" stroke="#ffffff" stroke-width="0.25" d="M58.3566 9.88803c0.2554 0 0.5004 -0.10147 0.681 -0.28207 0.1806 -0.1806 0.2821 -0.42558 0.2821 -0.68099 0 -0.2554 -0.1015 -0.50038 -0.2821 -0.68098 -0.1806 -0.1806 -0.4256 -0.28208 -0.681 -0.28208 -0.2554 0 -0.5004 0.10148 -0.681 0.28208 -0.1806 0.1806 -0.282 0.42558 -0.282 0.68098 0 0.25541 0.1014 0.50039 0.282 0.68099 0.1806 0.1806 0.4256 0.28207 0.681 0.28207Z"></path>
  <path fill="#afdad2" stroke="#ffffff" stroke-width="0.25" d="M55.1404 11.3667c0.4736 0 0.9279 -0.1882 1.2628 -0.5231s0.523 -0.7892 0.523 -1.2628c0 -0.47362 -0.1881 -0.92791 -0.523 -1.26281 -0.3349 -0.3349 -0.7892 -0.52307 -1.2628 -0.52307 -0.4737 0 -0.9279 0.18817 -1.2628 0.52307 -0.3349 0.3349 -0.5231 0.78919 -0.5231 1.26281 0 0.4736 0.1882 0.9279 0.5231 1.2628s0.7891 0.5231 1.2628 0.5231Z"></path>
  <path fill="#afdad2" stroke="#ffffff" stroke-width="0.25" d="M62.2288 9.63377c0.3272 0 0.6412 -0.13003 0.8726 -0.36146 0.2314 -0.23143 0.3615 -0.54537 0.3615 -0.87266 0 -0.32729 -0.1301 -0.64122 -0.3615 -0.87266 -0.2314 -0.23143 -0.5454 -0.36146 -0.8726 -0.36146 -0.3273 0 -0.6413 0.13003 -0.8727 0.36146 -0.2314 0.23144 -0.3615 0.54537 -0.3615 0.87266 0 0.32729 0.1301 0.64123 0.3615 0.87266 0.2314 0.23143 0.5454 0.36146 0.8727 0.36146Z"></path>
  <path fill="#afdad2" stroke="#ffffff" stroke-width="0.25" d="M6.84812 39.7402c0.41114 0 0.8055 -0.1634 1.09621 -0.4541 0.29072 -0.2907 0.45407 -0.685 0.45407 -1.0962 0 -0.4111 -0.16335 -0.8055 -0.45407 -1.0962 -0.29071 -0.2907 -0.68507 -0.4541 -1.09621 -0.4541 -0.41113 0 -0.80549 0.1634 -1.0962 0.4541 -0.29072 0.2907 -0.45407 0.6851 -0.45407 1.0962 0 0.4112 0.16335 0.8055 0.45407 1.0962 0.29071 0.2907 0.68507 0.4541 1.0962 0.4541Z"></path>
  <path fill="#afdad2" stroke="#ffffff" stroke-width="0.25" d="M42.0236 9.5277c0.2214 0 0.4337 -0.08795 0.5902 -0.24447 0.1565 -0.15652 0.2445 -0.36883 0.2445 -0.59018 0 -0.22135 -0.088 -0.43367 -0.2445 -0.59019s-0.3688 -0.24446 -0.5902 -0.24446c-0.2213 0 -0.4337 0.08794 -0.5902 0.24446 -0.1565 0.15652 -0.2444 0.36884 -0.2444 0.59019s0.0879 0.43366 0.2444 0.59018c0.1565 0.15652 0.3689 0.24447 0.5902 0.24447Z"></path>
  <path fill="#afdad2" stroke="#ffffff" stroke-width="0.25" d="M70.6977 13.3484c0.2671 0 0.5233 -0.1061 0.7122 -0.295 0.1889 -0.1889 0.295 -0.4451 0.295 -0.7122 0 -0.2671 -0.1061 -0.5233 -0.295 -0.7122 -0.1889 -0.1889 -0.4451 -0.295 -0.7122 -0.295 -0.2672 0 -0.5234 0.1061 -0.7123 0.295 -0.1888 0.1889 -0.295 0.4451 -0.295 0.7122 0 0.2671 0.1062 0.5233 0.295 0.7122 0.1889 0.1889 0.4451 0.295 0.7123 0.295Z"></path>
  <path fill="#afdad2" stroke="#ffffff" stroke-width="0.25" d="M51.8723 8.30948c0.3863 0 0.7569 -0.15349 1.03 -0.42667 0.2732 -0.27318 0.4267 -0.64374 0.4267 -1.03007 0 -0.38633 -0.1535 -0.75689 -0.4267 -1.03007 -0.2731 -0.27318 -0.6437 -0.42667 -1.03 -0.42667 -0.3864 0 -0.7569 0.15349 -1.0301 0.42667s-0.4267 0.64374 -0.4267 1.03007c0 0.38633 0.1535 0.75689 0.4267 1.03007 0.2732 0.27318 0.6437 0.42667 1.0301 0.42667Z"></path>
  <path fill="#afdad2" stroke="#ffffff" stroke-width="0.25" d="M18.6079 30.4297c0.4451 0 0.872 -0.1768 1.1867 -0.4915 0.3147 -0.3147 0.4916 -0.7416 0.4916 -1.1867 0 -0.4451 -0.1769 -0.872 -0.4916 -1.1867 -0.3147 -0.3147 -0.7416 -0.4916 -1.1867 -0.4916 -0.445 0 -0.8719 0.1769 -1.1867 0.4916 -0.3147 0.3147 -0.4915 0.7416 -0.4915 1.1867 0 0.4451 0.1768 0.872 0.4915 1.1867 0.3148 0.3147 0.7417 0.4915 1.1867 0.4915Z"></path>
  <path fill="#ffffff" d="m65.0185 22.5028 -1.7322 -0.0414 -1.7325 0.0397 -1.7322 0.1204 -1.7312 0.1995 -1.7297 0.2762 -1.7276 0.3495 -1.7253 0.4185 -1.7226 0.4826 -1.7198 0.541 -1.7169 0.5935 -1.714 0.6394 -1.7111 0.6786 -1.7084 0.7109 -1.7058 0.7362 -1.7032 0.7547 -1.7009 0.7664 -3.395 1.5424 -1.6945 0.7641 -1.6926 0.752 -1.6908 0.7352 -1.6893 0.7142 -1.6878 0.6894 -1.6865 0.6615 -1.6853 0.6312 -1.6843 0.5987 -1.6835 0.565 -1.6829 0.5302 -1.6824 0.495 -1.6821 0.4598 -1.6821 0.4249 -1.6821 0.3907 -1.68227 0.3576 -1.68267 0.3257 -1.68315 0.2952 -1.84635 0.2917 -0.08139 0.5616c-0.30916 2.1332 -0.46459 4.287 -0.46459 6.4449 0 1.6811 0.09433 3.36 0.28229 5.0289l0.11756 1.0438L5.90132 52.99l1.70055 -0.7668 3.39493 -1.5423 1.6943 -0.7635 1.692 -0.7497 1.6897 -0.7294 1.6871 -0.7021 1.6846 -0.668 1.6817 -0.6275 1.6789 -0.5804 1.676 -0.5273 1.6731 -0.4688 1.6703 -0.4053 1.6677 -0.3374 1.6652 -0.2659 1.6633 -0.1917 1.6616 -0.1155 1.6608 -0.0381 1.6604 0.0398 1.6607 0.117 1.6617 0.1931 1.6632 0.267 1.6653 0.3381 1.6676 0.4057 1.6703 0.4689 1.6731 0.5272 1.676 0.5799 1.6789 0.6268 1.6818 0.6673 1.6845 0.7012 1.6871 0.7283 1.6897 0.7488 1.6921 0.7625 3.3907 1.5404 1.6985 0.7659 1.7003 0.7555 1.702 0.7401 1.7037 0.7203 1.7051 0.6967 1.7064 0.6695 1.7076 0.6397 1.7086 0.6076 1.7094 0.5739 1.71 0.539 1.7105 0.5036 1.7108 0.4679 1.7109 0.4325 1.7108 0.3977 2.4059 0.5121 0.1999 -0.6869c1.1336 -3.8951 1.7352 -7.9275 1.7867 -11.987l0.0036 -0.566 -0.0035 -0.5709 -0.0119 -0.6108c-0.1448 -5.5059 -1.2988 -10.9345 -3.4052 -16.0198l-0.1554 -0.3705 -0.2775 -0.642 -1.7489 -0.7866 -1.7003 -0.7534 -1.7033 -0.7353 -1.7057 -0.71 -1.7084 -0.6778 -1.7112 -0.6387 -1.714 -0.593 -1.7169 -0.5409 -1.7198 -0.4827 -1.7226 -0.4189 -1.7252 -0.3502 -1.7277 -0.2773 -1.7297 -0.2009 -1.7312 -0.1219Zm-1.7502 0.7285 1.6964 0.0397 1.6965 0.1187 1.6965 0.1963 1.6964 0.2716 1.6965 0.3438 1.6964 0.4121 1.6965 0.4757 1.6964 0.5341 1.6965 0.5867 1.6964 0.6331 1.6965 0.673 1.6964 0.706 1.6965 0.7323 1.6964 0.7517 1.4775 0.6646c0.1051 0.2413 0.208 0.4836 0.3088 0.7269 2.0712 5.0004 3.2045 10.3361 3.3467 15.7401l0.0117 0.6007 0.0036 0.5611 -0.0036 0.5611c-0.0507 3.9949 -0.6432 7.958 -1.7561 11.7816l-1.6921 -0.3601 -1.6965 -0.3942 -1.6964 -0.4287 -1.6965 -0.4639 -1.6964 -0.4992 -1.6965 -0.5347 -1.6964 -0.5694 -1.6965 -0.6032 -1.6964 -0.6354 -1.6965 -0.6655 -1.6964 -0.693 -1.6965 -0.7173 -1.6964 -0.7377 -1.6965 -0.7537 -1.6965 -0.765 -3.3929 -1.5414 -1.6964 -0.7644 -1.6965 -0.7518 -1.6964 -0.7323 -1.6965 -0.706 -1.6964 -0.6729 -1.6965 -0.6331 -1.6964 -0.5867 -1.6965 -0.5342 -1.6964 -0.4757 -1.6965 -0.4121 -1.6964 -0.3438 -1.6965 -0.2716 -1.6964 -0.1963 -1.6965 -0.1187 -1.6965 -0.0397 -1.6964 0.0397 -1.6965 0.1187 -1.6964 0.1963 -1.6965 0.2716 -1.6964 0.3438 -1.6965 0.4121 -1.6964 0.4757 -1.6965 0.5342 -1.6964 0.5867 -1.6965 0.6331 -1.6964 0.6729 -1.6965 0.706 -1.6964 0.7323 -1.6965 0.7518 -1.6965 0.7644 -3.39286 1.5414 -1.69645 0.765 -1.4779 0.656c-0.18446 -1.6379 -0.27745 -3.288 -0.27745 -4.9427 0 -2.1245 0.15328 -4.2413 0.45663 -6.3345l1.29872 -0.2052 1.69645 -0.2977 1.69645 -0.3285 1.69641 -0.3607 1.6965 -0.3942 1.6965 -0.4288 1.6964 -0.4638 1.6965 -0.4993 1.6964 -0.5346 1.6965 -0.5694 1.6964 -0.6032 1.6965 -0.6354 1.6964 -0.6655 1.6965 -0.693 1.6964 -0.7173 1.6965 -0.7377 1.6964 -0.7537 1.6965 -0.765 3.3929 -1.5414 1.6965 -0.7645 1.6964 -0.7517 1.6965 -0.7323 1.6964 -0.706 1.6965 -0.673 1.6964 -0.6331 1.6965 -0.5867 1.6964 -0.5341 1.6965 -0.4757 1.6964 -0.4121 1.6965 -0.3438 1.6964 -0.2716 1.6965 -0.1963 1.6964 -0.1187 1.6965 -0.0397Z" stroke-width="1"></path>
  <path fill="#7db0bc" stroke="#ffffff" d="m63.2678 23.0483 1.705 0.04 1.7048 0.1193 1.7046 0.1972 1.7041 0.2728 1.7037 0.3453 1.703 0.4137 1.7023 0.4773 1.7017 0.5358 1.701 0.5883 1.702 0.6352 1.6993 0.6741 1.6987 0.707 1.698 0.733 1.6975 0.7522 1.5428 0.6952c0.1151 0.2632 0.2277 0.5277 0.3377 0.7934 2.1089 5.0914 3.2495 10.529 3.366 16.0341l0.0064 0.3757 0.0036 0.5635 -0.0036 0.5622c-0.0517 4.0684 -0.6629 8.1039 -1.8113 11.9938l-1.8621 -0.3958 -1.6999 -0.395 -1.6999 -0.4296 -1.6998 -0.4648 -1.6998 -0.5003 -1.6997 -0.5357 -1.6996 -0.5705 -1.6993 -0.6042 -1.6991 -0.6364 -1.6988 -0.6665 -1.6986 -0.6939 -1.6981 -0.718 -1.6978 -0.7383 -1.6974 -0.7541 -1.6969 -0.7652 -3.3924 -1.5412 -1.6954 -0.764 -1.6949 -0.751 -1.6942 -0.7314 -1.6936 -0.7048 -1.6929 -0.6716 -1.6944 -0.6323 -1.6919 -0.5852 -1.6913 -0.5325 -1.6905 -0.474 -1.6899 -0.4105 -1.6893 -0.3424 -1.6888 -0.2704 -1.6883 -0.1953 -1.6881 -0.1181 -1.6879 -0.0396 -1.6879 0.0396 -1.688 0.1181 -1.6884 0.1953 -1.6887 0.2704 -1.6893 0.3424 -1.6899 0.4105 -1.6906 0.474 -1.6912 0.5325 -1.692 0.5852 -1.6908 0.6309 -1.6936 0.6718 -1.6943 0.7051 -1.6948 0.7316 -1.6954 0.7513 -1.6959 0.7642 -3.39342 1.5416 -1.69736 0.7654 -1.7061 0.7581c-0.20435 -1.7265 -0.30741 -3.467 -0.30741 -5.2126 0 -2.1784 0.16051 -4.349 0.47809 -6.4943l1.42913 -0.2263 1.69328 -0.297 1.69317 -0.3278 1.69312 -0.36 1.693 -0.3934 1.693 -0.4278 1.693 -0.4629 1.6932 -0.4983 1.6932 -0.5335 1.6933 -0.5684 1.6936 -0.6021 1.6938 -0.6344 1.6941 -0.6646 1.6944 -0.6921 1.6947 -0.7166 1.6951 -0.7371 1.6955 -0.7533 1.696 -0.7647 3.3934 -1.5417 1.6975 -0.7649 1.6981 -0.7524 1.6987 -0.7333 1.6993 -0.7072 1.6999 -0.6743 1.6986 -0.6338 1.701 -0.5883 1.7016 -0.5358 1.7024 -0.4773 1.703 -0.4137 1.7036 -0.3453 1.7041 -0.2728 1.7046 -0.1972 1.7049 -0.1193 1.705 -0.04Z" stroke-width="1"></path>
  <path fill="#5c7da2" d="m36.1249 43.5894 1.6964 0.0397 1.6965 0.1187 1.6964 0.1963 1.6965 0.2716 1.6964 0.3438 1.6965 0.4121L48 45.4473l1.6965 0.5341 1.6965 0.5867 1.6964 0.6331 1.6965 0.673 1.6964 0.706 1.6965 0.7323 1.6964 0.7517 1.6965 0.7645 1.6964 0.7707 1.6965 0.7707 1.6964 0.7649 1.6965 0.7538 1.6964 0.7377 1.6965 0.7172 1.6964 0.693 1.6965 0.6656 1.6964 0.6354 1.6965 0.6032 1.6965 0.5694 1.6964 0.5346 1.6965 0.4993 1.6964 0.4638 1.6965 0.4287 1.6964 0.3943 1.4521 0.3087c-0.3964 1.2718 -0.8507 2.5273 -1.3623 3.7623 -2.2195 5.3584 -5.4729 10.2275 -9.5741 14.3287 -4.1012 4.1012 -8.9703 7.3546 -14.3287 9.5741C59.5435 91.0244 53.8 92.1668 48 92.1668c-5.7999 0 -11.5434 -1.1424 -16.9018 -3.362 -5.3584 -2.2195 -10.2276 -5.4729 -14.3287 -9.5741 -4.1012 -4.1012 -7.35462 -8.9703 -9.57415 -14.3287 -1.48241 -3.5789 -2.48436 -7.3295 -2.98637 -11.154l1.37973 -0.613 1.69645 -0.7649 1.69645 -0.7707 1.69649 -0.7707 1.6964 -0.7645 1.6965 -0.7517 1.6964 -0.7323 1.6965 -0.706 1.6964 -0.673 1.6965 -0.6331 1.6964 -0.5867 1.6965 -0.5341 1.6964 -0.4757 1.6965 -0.4121 1.6965 -0.3438 1.6964 -0.2716 1.6965 -0.1963 1.6964 -0.1187 1.6965 -0.0397Z" stroke-width="1"></path>
  <path fill="#444876" d="M39.5174 55.0259v5.689h10.1788v7.8563h10.1787v5.3739h10.1787v2.2681h10.1787l0 1.9824c-0.3281 0.3502 -0.6622 0.6953 -1.002 1.0352 -4.1012 4.1011 -8.9703 7.3546 -14.3287 9.5741 -5.3585 2.2195 -11.102 3.362 -16.9019 3.362 -5.7999 0 -11.5434 -1.1425 -16.9018 -3.362 -5.3585 -2.2195 -10.2276 -5.473 -14.3287 -9.5741 -3.111 -3.1109 -5.7341 -6.6638 -7.78824 -10.5368l0.00033 -5.3005H19.16v-7.0894h10.1787v-1.2782h10.1787Z" stroke-width="1"></path>
  <path fill="#ffffff" d="m39.8658 54.6782 -0.0002 5.689 10.1789 0 -0.0002 7.8562 10.1789 0.0002 -0.0002 5.3737 10.1789 0.0001 -0.0002 2.2681 10.1789 0.0001 0.0004 1.9541c-0.229 0.2501 -0.4609 0.4978 -0.6958 0.7428l-0.0003 -2.0025 -9.4832 -0.0002 0 9.5044c-0.2305 0.1357 -0.4624 0.2694 -0.6954 0.4009l0 -12.1731 -9.4833 -0.0003 0 16.1502c-0.2313 0.0666 -0.4631 0.1313 -0.6953 0.1941l-0.0001 -21.7176 -9.4833 -0.0003 -0.0001 23.2014c-0.2316 0.0107 -0.4635 0.0196 -0.6954 0.0267l0.0001 -31.0843 -9.4833 0 0.0001 30.3493c-0.2323 -0.0436 -0.4642 -0.089 -0.6957 -0.1362l0.0003 -35.9022h-9.4836l-0.0001 0.5836 0.0004 0.0001 -0.0004 32.2344c-0.2328 -0.1061 -0.4646 -0.2142 -0.6953 -0.3242l0.0003 -31.2157H19.508l-0.0001 6.3945 0.0004 0.0003 -0.0004 18.7014c-0.2336 -0.1972 -0.4653 -0.397 -0.695 -0.5992l0 -17.4072H9.32932l-0.00046 5.5947c-0.23892 -0.433 -0.47065 -0.8702 -0.69507 -1.3114l0.00074 -4.9783 10.17857 -0.0003 0.0001 -7.089 10.1786 -0.0001 0.0002 -1.2782h10.8738Z" stroke-width="1"></path>
  <path fill="#444876" d="M48 1c6.172 0 12.284 1.21575 17.9861 3.57766C71.6883 6.93958 76.8698 10.4017 81.234 14.766c4.3643 4.3642 7.8264 9.5457 10.1883 15.2479 2.2858 5.5182 3.4981 11.4202 3.5739 17.389L95 48l-0.0038 0.5971c-0.0758 5.9688 -1.2881 11.8708 -3.5739 17.389 -2.3619 5.7022 -5.824 10.8837 -10.1883 15.2479 -4.3642 4.3643 -9.5457 7.8264 -15.2479 10.1883C60.284 93.7843 54.172 95 48 95c-6.172 0 -12.284 -1.2157 -17.9861 -3.5777 -5.7022 -2.3619 -10.8837 -5.824 -15.2479 -10.1883 -4.3643 -4.3642 -7.82642 -9.5457 -10.18834 -15.2479C2.21575 60.284 1 54.172 1 48c0 -6.172 1.21575 -12.284 3.57766 -17.9861C6.93958 24.3117 10.4017 19.1302 14.766 14.766c4.3642 -4.3643 9.5457 -7.82642 15.2479 -10.18834C35.716 2.21575 41.828 1 48 1Zm0 1.5433c-5.9693 0 -11.8806 1.17583 -17.3955 3.46019 -5.515 2.28436 -10.5263 5.63281 -14.7472 9.85381 -4.221 4.2209 -7.56945 9.2322 -9.85381 14.7472C3.71913 36.1194 2.5433 42.0307 2.5433 48c0 5.9693 1.17583 11.8806 3.46019 17.3955 2.28436 5.515 5.63281 10.5263 9.85381 14.7472 4.2209 4.221 9.2322 7.5695 14.7472 9.8538C36.1194 92.2809 42.0307 93.4567 48 93.4567c5.9693 0 11.8806 -1.1758 17.3955 -3.4602 5.515 -2.2843 10.5263 -5.6328 14.7472 -9.8538 4.221 -4.2209 7.5695 -9.2322 9.8538 -14.7472 2.2107 -5.337 3.3832 -11.0452 3.4565 -16.818L93.4567 48l-0.0037 -0.5775c-0.0733 -5.7728 -1.2458 -11.481 -3.4565 -16.818 -2.2843 -5.515 -5.6328 -10.5263 -9.8538 -14.7472 -4.2209 -4.221 -9.2322 -7.56945 -14.7472 -9.85381C59.8806 3.71913 53.9693 2.5433 48 2.5433Z" stroke-width="1"></path>
</svg>